# xmcd
#
# Track frame offsets: 
#        150
#        15743
#        28505
#        38618
#        61568
#        72288
#        87820
#        96073
#        109640
#        119468
#        128163
#        146688
#        158008
#        164988
#        176008
#        186288
#        199715
#        214110
#        220930
#        230080
#        242910
#
# Disc length: 3328 seconds
#
# Revision: 0
# Processed by: cddbd v1.5.2PL0 Copyright (c) Steve Scherf et al.
# Submitted via: ExactAudioCopy v1.0b3
#
DISCID=290cfe15
DTITLE=Symphony Orchestra – Alfred Scholz - Ungarische Tänze – Hungari
DTITLE=an Dances Nos. 1–21
DYEAR=1994
DGENRE=Classical
TTITLE0=g-moll - in G minor, Allegro molto
TTITLE1=d-moll - in D minor, Allegro non assai
TTITLE2=F-Dur - in F, Allegretto
TTITLE3=fis-moll - in F sharp minor, Poco sostenuto
TTITLE4=g-moll - in G minor, Allegro
TTITLE5=D-Dur - in D, Vivace
TTITLE6=A-Dur - in A, Allegretto
TTITLE7=a-moll - in A minor, Presto
TTITLE8=e-moll - in E minor, Allegro non troppo
TTITLE9=F-Dur - in F, Presto
TTITLE10=C-Dur - in C, Poco Andante
TTITLE11=d-moll - in D minor, Presto
TTITLE12=D-Dur - in D, Andantino grazioso
TTITLE13=d-moll - in D minor, un poco andante
TTITLE14=B-Dur - in B flat, Allegretto grazioso
TTITLE15=f-moll - in F minor, Con moto
TTITLE16=fis-moll - in F sharp minor, Andantino
TTITLE17=D-Dur - in D, Molto vivace
TTITLE18=h-moll - in B minor, Allegretto
TTITLE19=e-moll - in E minor, Poco allegretto
TTITLE20=e-moll - in E minor, Vivace
EXTD=
EXTT0=
EXTT1=
EXTT2=
EXTT3=
EXTT4=
EXTT5=
EXTT6=
EXTT7=
EXTT8=
EXTT9=
EXTT10=
EXTT11=
EXTT12=
EXTT13=
EXTT14=
EXTT15=
EXTT16=
EXTT17=
EXTT18=
EXTT19=
EXTT20=
PLAYORDER=
